<svg xmlns="http://www.w3.org/2000/svg" xmlns:xlink="http://www.w3.org/1999/xlink" width="500" zoomAndPan="magnify" viewBox="0 0 375 374.999991" height="500" preserveAspectRatio="xMidYMid meet" version="1.0"><defs><g/><clipPath id="7ca63a138f"><path d="M 100.742188 100.742188 L 274.257812 100.742188 L 274.257812 274.257812 L 100.742188 274.257812 Z M 100.742188 100.742188 " clip-rule="nonzero"/></clipPath><clipPath id="0127fe3eaf"><path d="M 187.5 274.257812 C 164.335938 274.257812 142.527344 265.242188 126.160156 248.839844 C 109.757812 232.472656 100.742188 210.664062 100.742188 187.5 C 100.742188 164.335938 109.757812 142.527344 126.160156 126.160156 C 142.527344 109.757812 164.335938 100.742188 187.5 100.742188 C 210.664062 100.742188 232.472656 109.757812 248.839844 126.160156 C 265.242188 142.5625 274.257812 164.335938 274.257812 187.5 C 274.257812 210.664062 265.242188 232.472656 248.839844 248.839844 C 232.472656 265.242188 210.664062 274.257812 187.5 274.257812 Z M 187.5 105.945312 C 165.722656 105.945312 145.230469 114.441406 129.835938 129.835938 C 114.441406 145.230469 105.945312 165.722656 105.945312 187.5 C 105.945312 209.277344 114.441406 229.769531 129.835938 245.164062 C 145.230469 260.558594 165.722656 269.054688 187.5 269.054688 C 209.277344 269.054688 229.769531 260.558594 245.164062 245.164062 C 260.558594 229.769531 269.054688 209.277344 269.054688 187.5 C 269.054688 165.722656 260.558594 145.230469 245.164062 129.835938 C 229.769531 114.441406 209.277344 105.945312 187.5 105.945312 Z M 187.5 105.945312 " clip-rule="nonzero"/></clipPath><clipPath id="700a80a357"><path d="M 0.742188 0.742188 L 174.257812 0.742188 L 174.257812 174.257812 L 0.742188 174.257812 Z M 0.742188 0.742188 " clip-rule="nonzero"/></clipPath><clipPath id="f79bc893fc"><path d="M 87.5 174.257812 C 64.335938 174.257812 42.527344 165.242188 26.160156 148.839844 C 9.757812 132.472656 0.742188 110.664062 0.742188 87.5 C 0.742188 64.335938 9.757812 42.527344 26.160156 26.160156 C 42.527344 9.757812 64.335938 0.742188 87.5 0.742188 C 110.664062 0.742188 132.472656 9.757812 148.839844 26.160156 C 165.242188 42.5625 174.257812 64.335938 174.257812 87.5 C 174.257812 110.664062 165.242188 132.472656 148.839844 148.839844 C 132.472656 165.242188 110.664062 174.257812 87.5 174.257812 Z M 87.5 5.945312 C 65.722656 5.945312 45.230469 14.441406 29.835938 29.835938 C 14.441406 45.230469 5.945312 65.722656 5.945312 87.5 C 5.945312 109.277344 14.441406 129.769531 29.835938 145.164062 C 45.230469 160.558594 65.722656 169.054688 87.5 169.054688 C 109.277344 169.054688 129.769531 160.558594 145.164062 145.164062 C 160.558594 129.769531 169.054688 109.277344 169.054688 87.5 C 169.054688 65.722656 160.558594 45.230469 145.164062 29.835938 C 129.769531 14.441406 109.277344 5.945312 87.5 5.945312 Z M 87.5 5.945312 " clip-rule="nonzero"/></clipPath><clipPath id="7051476be7"><rect x="0" width="175" y="0" height="175"/></clipPath></defs><rect x="-37.5" width="450" fill="#ffffff" y="-37.499999" height="449.999989" fill-opacity="1"/><rect x="-37.5" width="450" fill="#ffffff" y="-37.499999" height="449.999989" fill-opacity="1"/><g clip-path="url(#7ca63a138f)"><g clip-path="url(#0127fe3eaf)"><g transform="matrix(1, 0, 0, 1, 100, 100)"><g clip-path="url(#7051476be7)"><g clip-path="url(#700a80a357)"><g clip-path="url(#f79bc893fc)"><path fill="#004aad" d="M 0.742188 0.742188 L 174.257812 0.742188 L 174.257812 174.257812 L 0.742188 174.257812 Z M 0.742188 0.742188 " fill-opacity="1" fill-rule="nonzero"/></g></g></g></g></g></g><g fill="#5170ff" fill-opacity="1"><g transform="translate(127.99999, 230.999985)"><g><path d="M 115.515625 -50.875 C 115.515625 -34.25 111.046875 -21.273438 102.109375 -11.953125 C 93.171875 -2.628906 80.535156 2.03125 64.203125 2.03125 C 53.191406 2.03125 43.265625 -0.285156 34.421875 -4.921875 C 25.578125 -9.566406 18.710938 -15.894531 13.828125 -23.90625 C 8.953125 -31.925781 6.515625 -40.890625 6.515625 -50.796875 C 6.515625 -60.703125 8.929688 -69.664062 13.765625 -77.6875 C 18.597656 -85.707031 25.265625 -92.007812 33.765625 -96.59375 C 42.273438 -101.1875 51.742188 -103.484375 62.171875 -103.484375 C 68.742188 -103.484375 75.4375 -102.585938 82.25 -100.796875 C 89.0625 -99.015625 94.738281 -96.625 99.28125 -93.625 L 102.1875 -73.1875 L 100.875 -73.1875 C 98.84375 -81.3125 94.15625 -87.664062 86.8125 -92.25 C 79.46875 -96.84375 71.304688 -99.140625 62.328125 -99.140625 C 49.472656 -99.140625 38.769531 -94.570312 30.21875 -85.4375 C 21.664062 -76.3125 17.390625 -64.835938 17.390625 -51.015625 C 17.390625 -37.203125 21.8125 -25.628906 30.65625 -16.296875 C 39.5 -6.972656 51.066406 -2.3125 65.359375 -2.3125 C 79.660156 -2.3125 91.328125 -6.945312 100.359375 -16.21875 C 109.398438 -25.5 113.921875 -38.210938 113.921875 -54.359375 L 115.375 -54.359375 C 115.46875 -53.191406 115.515625 -52.03125 115.515625 -50.875 Z M 115.515625 -50.875 "/></g></g></g></svg>